<svg fill="none" height="512" viewBox="0 0 24 24" width="512" xmlns="http://www.w3.org/2000/svg"><g fill="#f44336"><path d="m5 1.25c-1.51878 0-2.75 1.23122-2.75 2.75v16c0 1.5188 1.23122 2.75 2.75 2.75h3c1.51878 0 2.75-1.2312 2.75-2.75v-16c0-1.51878-1.23122-2.75-2.75-2.75z"/><path d="m16 1.25c-1.5188 0-2.75 1.23122-2.75 2.75v16c0 1.5188 1.2312 2.75 2.75 2.75h3c1.5188 0 2.75-1.2312 2.75-2.75v-16c0-1.51878-1.2312-2.75-2.75-2.75z"/><path d="m16 1.25c-1.5188 0-2.75 1.23122-2.75 2.75v16c0 1.5188 1.2312 2.75 2.75 2.75h3c1.5188 0 2.75-1.2312 2.75-2.75v-16c0-1.51878-1.2312-2.75-2.75-2.75z"/></g><path clip-rule="evenodd" d="m6.5 1.25v21.5h-1.5c-1.51878 0-2.75-1.2312-2.75-2.75v-16c0-1.51878 1.23122-2.75 2.75-2.75z" fill="#cc382d" fill-rule="evenodd"/><path clip-rule="evenodd" d="m17.5 1.25v21.5h-1.5c-1.5188 0-2.75-1.2312-2.75-2.75v-16c0-1.51878 1.2312-2.75 2.75-2.75z" fill="#cc382d" fill-rule="evenodd"/></svg>